<svg xmlns="http://www.w3.org/2000/svg" viewBox="0 0 64 64" role="img" aria-label="ConvertLab icon">
  <defs>
    <linearGradient id="g1" x1="12%" y1="8%" x2="88%" y2="92%">
      <stop stop-color="#6ba3ff" offset="0%"/>
      <stop stop-color="#55c595" offset="50%"/>
      <stop stop-color="#f8b84a" offset="100%"/>
    </linearGradient>
  </defs>
  <rect x="4" y="4" width="56" height="56" rx="14" fill="url(#g1)"/>
  <rect x="9" y="9" width="46" height="46" rx="12" fill="#ffffff" opacity="0.9"/>
  <path d="M22 25h12l-3.4-3.4a1.5 1.5 0 1 1 2.1-2.1l6.2 6.2a1.5 1.5 0 0 1 0 2.1l-6.2 6.2a1.5 1.5 0 0 1-2.1-2.1L34 29H22a1.5 1.5 0 1 1 0-3Z" fill="#1f2430"/>
  <path d="M42 39H30l3.4 3.4a1.5 1.5 0 1 1-2.1 2.1l-6.2-6.2a1.5 1.5 0 0 1 0-2.1l6.2-6.2a1.5 1.5 0 0 1 2.1 2.1L30 35h12a1.5 1.5 0 1 1 0 3Z" fill="#1f2430"/>
</svg>
